<?xml version="1.0" standalone="no"?>
<!DOCTYPE svg PUBLIC "-//W3C//DTD SVG 20010904//EN"
 "http://www.w3.org/TR/2001/REC-SVG-20010904/DTD/svg10.dtd">
<svg version="1.0" xmlns="http://www.w3.org/2000/svg"
 width="1171.000000pt" height="1171.000000pt" viewBox="0 0 1171.000000 1171.000000"
 preserveAspectRatio="xMidYMid meet">

<g transform="translate(0.000000,1171.000000) scale(0.100000,-0.100000)"
fill="#000000" stroke="none">
<path d="M4895 10147 c-17 -6 -28 -20 -36 -46 -17 -58 12 -106 120 -191 93
-73 140 -133 184 -231 19 -42 26 -81 31 -169 11 -184 8 -2048 -4 -2355 -6
-154 -10 -349 -9 -434 3 -164 -2 -181 -42 -145 -15 14 -142 238 -158 279 -2 6
-9 17 -16 25 -7 8 -40 69 -75 135 -35 66 -66 125 -70 130 -4 6 -33 60 -65 120
-32 61 -85 160 -118 220 -32 61 -128 250 -212 420 -84 171 -176 348 -204 395
-29 47 -72 126 -98 176 -45 92 -45 92 -53 230 -10 186 -26 222 -115 260 -34
14 -74 16 -250 15 -182 -1 -218 -4 -272 -22 -80 -26 -113 -52 -113 -88 0 -16
37 -102 83 -192 45 -90 102 -207 126 -259 147 -316 272 -559 348 -678 18 -29
33 -54 33 -57 0 -3 17 -31 37 -62 20 -32 60 -98 89 -148 28 -49 101 -175 161
-280 60 -104 129 -226 152 -270 24 -44 47 -84 51 -90 4 -5 32 -57 62 -115 115
-220 176 -333 311 -580 77 -140 151 -275 165 -300 14 -25 34 -61 44 -80 11
-19 25 -44 31 -55 29 -47 114 -197 160 -280 28 -49 74 -128 102 -175 29 -47
60 -100 71 -117 26 -45 115 -189 136 -222 10 -14 22 -36 27 -47 5 -12 22 -31
37 -43 33 -26 76 -21 113 13 41 38 43 58 11 156 l-30 90 2 2433 c3 2614 0
2455 52 2499 26 22 79 23 171 3 88 -18 200 -18 335 0 83 11 259 14 851 15 566
0 748 3 757 12 24 24 12 45 -40 74 l-53 29 -540 2 c-1510 7 -2257 7 -2280 0z"/>
<path d="M5980 9850 c-34 -8 -79 -50 -81 -73 0 -7 -1 -1112 -2 -2457 -2 -2309
-1 -2447 15 -2472 10 -16 34 -32 55 -38 58 -16 549 -25 601 -11 76 21 76 55
-1 206 -24 50 -48 101 -52 115 -4 14 -11 30 -15 35 -25 34 -77 233 -105 400
-4 22 -5 902 -3 1955 1 1053 3 1992 3 2085 0 146 -3 175 -18 198 -36 55 -58
62 -217 64 -80 1 -161 -2 -180 -7z"/>
<path d="M8425 9114 c-147 -33 -329 -54 -765 -84 -155 -11 -187 -15 -290 -40
-156 -37 -295 -97 -397 -173 -159 -118 -313 -333 -354 -497 -24 -92 -40 -229
-34 -290 7 -72 39 -235 56 -290 58 -182 237 -518 409 -770 17 -25 54 -81 82
-125 29 -44 69 -105 89 -136 58 -87 205 -350 265 -474 66 -133 126 -308 150
-430 19 -103 14 -308 -10 -405 -41 -162 -147 -340 -281 -468 -85 -81 -108 -99
-225 -173 -92 -59 -435 -229 -461 -229 -5 0 -34 -12 -65 -26 -31 -14 -78 -32
-103 -38 -25 -7 -100 -29 -167 -49 -66 -20 -192 -48 -280 -62 -87 -14 -185
-30 -216 -35 -103 -19 -454 -10 -628 15 -85 12 -173 28 -195 34 -22 6 -52 11
-68 11 -15 0 -35 4 -45 9 -9 5 -53 19 -97 31 -122 34 -210 64 -325 110 -92 37
-150 63 -290 129 -19 9 -56 37 -82 63 l-47 47 2 119 2 120 -29 31 c-46 48 -81
55 -246 48 -113 -5 -157 -4 -200 8 -86 23 -114 20 -144 -16 -27 -32 -33 -67
-16 -99 10 -20 109 -101 202 -167 33 -23 78 -57 100 -74 42 -34 155 -109 164
-109 2 0 33 -17 68 -39 123 -74 460 -223 561 -246 17 -4 68 -19 115 -32 203
-59 329 -80 645 -108 215 -19 333 -19 564 0 288 24 384 36 566 75 47 10 296
75 340 88 48 15 228 81 250 92 11 5 63 28 115 50 180 79 505 262 518 292 2 5
9 8 16 8 21 0 185 136 289 238 121 120 184 214 251 375 43 106 58 312 32 458
-17 93 -86 316 -125 401 -16 35 -48 106 -71 158 -42 95 -178 363 -261 515
-104 192 -134 249 -208 400 -105 212 -144 305 -171 401 -12 43 -26 84 -30 89
-15 18 -33 218 -27 296 7 86 47 206 102 305 40 71 179 223 265 289 106 82 265
152 440 195 63 15 169 42 235 60 66 18 149 35 185 39 57 5 65 9 68 28 2 14 -6
32 -22 48 -29 29 -74 32 -171 9z"/>
<path d="M2440 8989 c-25 -4 -156 -8 -292 -8 -210 -1 -249 -3 -262 -17 -36
-36 -11 -67 92 -115 173 -80 340 -197 478 -337 234 -235 353 -416 623 -945
139 -273 180 -349 306 -567 101 -174 143 -247 166 -287 10 -17 29 -50 43 -72
15 -22 26 -43 26 -45 0 -3 25 -46 55 -96 30 -50 55 -92 55 -94 0 -2 37 -66 82
-142 81 -138 132 -227 170 -294 11 -19 24 -39 28 -45 4 -5 21 -35 37 -65 17
-30 50 -89 75 -130 25 -41 78 -131 118 -200 40 -69 87 -147 104 -174 122 -196
141 -253 120 -368 -31 -173 -16 -202 116 -218 117 -14 548 -13 591 1 58 20 72
38 67 89 -5 43 -63 175 -142 318 -19 34 -57 104 -84 155 -27 50 -69 128 -92
172 -24 44 -49 87 -56 96 -8 8 -14 19 -14 23 0 4 -46 89 -102 189 -56 100
-122 220 -148 267 -58 106 -238 424 -335 590 -40 69 -82 142 -94 163 -12 21
-48 83 -81 137 -33 55 -60 102 -60 105 0 3 -11 22 -23 43 -52 82 -157 261
-157 267 0 4 -13 26 -30 50 -16 24 -30 46 -30 50 0 3 -18 34 -40 69 -22 35
-40 66 -40 68 0 3 -29 53 -65 112 -36 58 -65 108 -65 111 0 3 -9 18 -19 33
-22 31 -264 439 -274 462 -4 8 -27 47 -52 85 -25 39 -48 77 -52 85 -3 8 -34
58 -69 110 -151 231 -301 342 -499 369 -85 12 -109 12 -175 0z"/>
<path d="M8400 8816 c-41 -18 -136 -60 -210 -93 -74 -34 -146 -64 -160 -68
-14 -4 -30 -11 -35 -16 -6 -4 -42 -21 -80 -36 -174 -71 -316 -203 -353 -328
-30 -102 -42 -391 -21 -482 33 -137 69 -208 225 -438 40 -60 74 -114 74 -118
0 -5 8 -21 18 -35 23 -32 158 -293 315 -607 203 -406 256 -579 257 -828 0
-185 -32 -309 -125 -477 -90 -162 -212 -308 -417 -500 -147 -138 -199 -181
-297 -246 -41 -27 -90 -59 -108 -72 -107 -73 -405 -212 -568 -266 -248 -83
-318 -101 -525 -138 -342 -60 -532 -73 -922 -64 -341 8 -408 16 -743 91 -86
20 -398 124 -480 160 -274 123 -529 288 -756 491 -195 174 -305 243 -504 316
-55 20 -83 22 -315 26 -249 3 -256 3 -277 -18 -16 -14 -23 -32 -23 -58 0 -60
50 -100 270 -215 108 -56 224 -117 323 -170 38 -20 85 -49 105 -65 50 -38 203
-123 397 -220 149 -74 191 -93 350 -159 192 -78 516 -191 655 -227 52 -14 120
-31 150 -39 75 -20 194 -44 255 -52 28 -3 97 -14 155 -23 99 -16 329 -20 665
-13 50 1 203 -1 340 -4 202 -5 265 -3 330 9 44 9 123 23 175 31 93 15 266 52
345 74 22 6 81 20 130 31 50 10 128 31 175 45 47 15 102 31 122 36 40 10 193
69 293 114 59 26 126 60 235 118 50 27 294 185 330 214 8 6 53 42 100 79 47
37 162 144 255 238 135 136 187 196 253 294 119 177 164 269 209 431 24 85 27
114 27 251 1 211 -15 277 -122 530 -83 196 -144 337 -178 408 -19 40 -34 75
-34 78 0 18 -270 545 -353 688 -127 220 -144 350 -62 473 19 29 81 92 137 142
57 49 128 120 158 158 30 37 57 70 61 73 16 14 137 159 152 182 21 34 22 106
2 156 -22 52 -91 120 -150 148 -72 34 -132 32 -225 -10z"/>
<path d="M4506 8425 c-21 -7 -43 -18 -49 -24 -20 -20 -11 -95 21 -161 31 -63
157 -300 187 -350 8 -14 47 -81 86 -150 39 -69 87 -152 106 -185 20 -33 52
-91 72 -130 40 -77 58 -87 110 -60 50 25 50 41 10 260 -17 93 -5 254 26 370
25 89 26 106 17 152 -15 74 -85 169 -154 209 -80 47 -133 65 -210 74 -112 13
-175 12 -222 -5z"/>
<path d="M9109 7546 c-2 -2 -23 -6 -47 -10 -44 -6 -100 -23 -162 -50 -53 -22
-115 -93 -139 -159 -28 -76 -29 -234 -2 -362 16 -76 109 -335 140 -392 20 -35
115 -296 129 -353 38 -155 47 -229 47 -420 0 -181 -2 -203 -28 -309 -28 -110
-47 -161 -108 -286 -80 -164 -147 -252 -331 -441 -144 -146 -168 -175 -168
-202 0 -40 23 -62 66 -62 44 0 67 12 222 117 216 147 380 297 473 434 100 148
172 341 216 579 25 132 25 616 0 887 -22 244 -21 279 4 437 29 182 47 200 164
166 84 -24 133 -26 141 -5 16 40 -75 237 -139 304 -76 79 -223 131 -372 131
-56 0 -104 -2 -106 -4z"/>
<path d="M6731 6751 c-42 -12 -46 -32 -22 -107 29 -92 37 -182 30 -339 -3 -71
-1 -257 5 -413 7 -214 7 -300 -2 -353 -17 -100 -15 -137 12 -194 51 -111 235
-225 363 -225 51 0 63 4 84 26 24 26 24 26 33 352 14 520 -5 690 -99 889 -56
119 -111 196 -204 289 -81 82 -122 97 -200 75z"/>
<path d="M2490 6199 c-229 -22 -434 -99 -587 -221 -35 -27 -63 -51 -63 -53 0
-1 123 0 274 3 179 3 275 1 279 -5 4 -6 -19 -24 -51 -41 -72 -40 -57 -40 56
-2 69 23 108 30 168 30 l79 1 97 103 98 104 -76 7 c-41 4 -163 4 -270 0 -127
-5 -194 -4 -194 2 0 12 69 21 255 33 163 11 353 -1 496 -30 167 -34 374 -116
503 -198 23 -14 59 -28 81 -31 30 -5 40 -11 45 -28 3 -12 25 -36 50 -52 79
-52 80 -54 81 -112 1 -30 4 -67 8 -84 6 -25 9 -15 20 54 7 46 9 87 4 91 -4 4
-35 31 -68 60 -33 28 -62 61 -65 73 -4 14 -16 24 -35 28 -17 3 -91 36 -165 74
-74 37 -175 83 -223 102 -224 86 -512 120 -797 92z"/>
<path d="M2858 6052 c-78 -62 -172 -167 -163 -182 3 -5 22 -8 41 -7 29 2 41 9
63 42 l27 40 69 0 70 0 0 -30 c0 -23 -5 -30 -25 -35 -45 -11 85 -18 274 -14
99 1 183 7 189 13 15 15 11 60 -8 81 -52 57 -258 134 -395 146 l-66 6 -76 -60z"/>
<path d="M1380 5869 c-71 -10 -166 -43 -211 -73 -75 -50 -124 -164 -117 -273
4 -56 27 -66 43 -18 12 35 17 36 189 17 300 -33 578 3 734 94 46 27 122 91
122 103 0 4 -60 -1 -132 -11 -209 -27 -435 -39 -668 -36 l-215 3 56 56 c62 62
129 98 240 128 76 20 58 25 -41 10z"/>
<path d="M2395 5774 c-43 -22 -84 -63 -106 -107 -19 -37 -45 -145 -36 -153 2
-2 23 34 46 81 50 101 99 145 162 145 53 0 82 -13 134 -61 25 -23 45 -39 45
-35 0 17 -31 64 -62 93 -56 54 -124 68 -183 37z"/>
<path d="M3622 5724 c-25 -17 -52 -64 -52 -90 0 -11 11 -2 29 23 42 57 96 66
145 24 18 -15 19 -15 13 2 -4 10 -7 20 -7 23 0 9 -61 34 -82 34 -13 0 -34 -7
-46 -16z"/>
<path d="M2881 5635 c-71 -16 -173 -61 -211 -93 l-25 -22 47 20 c167 72 339
79 652 25 123 -21 234 -34 278 -34 l73 2 -55 9 c-30 5 -138 27 -240 49 -299
63 -393 71 -519 44z"/>
<path d="M1491 4968 c-17 -23 -30 -45 -29 -49 2 -4 93 -78 203 -163 l200 -156
32 37 c18 21 33 43 33 48 -1 8 -311 257 -389 311 -18 13 -22 10 -50 -28z"/>
<path d="M10117 4763 c-26 -19 -47 -38 -47 -42 0 -3 59 -81 130 -171 72 -91
134 -178 139 -195 11 -43 -5 -80 -54 -123 -84 -73 -166 -76 -199 -7 -21 43 -9
75 45 124 l40 37 -21 47 c-21 47 -33 57 -46 36 -14 -24 -99 -69 -130 -69 -70
0 -69 56 3 119 l46 41 -39 35 c-21 19 -41 34 -44 35 -14 1 -132 -105 -141
-127 -25 -67 2 -148 62 -179 32 -16 75 -15 137 2 23 7 24 6 9 -22 -44 -86 -41
-142 11 -197 92 -97 227 -72 368 68 74 73 95 130 75 203 -14 53 -18 59 -175
262 -65 85 -119 156 -120 157 -1 1 -22 -14 -49 -34z"/>
<path d="M1415 4748 c-2 -7 -8 -30 -14 -51 -9 -35 -8 -39 15 -48 14 -5 31 -9
38 -9 24 0 105 -60 120 -89 21 -39 20 -104 0 -144 -53 -104 -139 -177 -208
-177 -50 0 -86 20 -135 77 l-42 47 -44 -23 -44 -23 15 -31 c27 -52 104 -126
161 -153 46 -23 63 -26 113 -21 76 7 130 38 203 116 75 81 111 157 115 244 5
86 -14 140 -71 196 -66 66 -210 123 -222 89z"/>
<path d="M9432 4489 c-74 -49 -140 -89 -148 -89 -8 0 -23 13 -32 30 -20 35
-23 36 -74 13 -35 -16 -38 -21 -33 -48 16 -86 89 -137 161 -112 37 12 278 160
288 175 5 8 -16 108 -24 115 -3 2 -65 -36 -138 -84z"/>
<path d="M2067 4524 c-15 -26 -27 -48 -25 -49 15 -13 441 -275 443 -273 8 10
55 88 55 92 0 5 -414 264 -434 272 -6 2 -24 -17 -39 -42z"/>
<path d="M1945 4318 c-4 -18 -9 -40 -11 -49 -4 -13 6 -18 49 -23 67 -9 167
-55 195 -90 52 -67 52 -150 -1 -234 -61 -95 -158 -153 -226 -135 l-30 8 49
113 c28 62 50 128 50 146 0 33 -26 65 -83 101 l-28 18 -37 -37 c-31 -31 -35
-38 -21 -46 9 -5 26 -17 38 -27 l23 -18 -63 -139 -63 -139 25 -20 c13 -11 48
-31 77 -45 152 -70 338 20 424 204 68 145 28 274 -112 364 -59 38 -172 79
-217 80 -28 0 -32 -4 -38 -32z"/>
<path d="M9517 4309 c-42 -26 -48 -33 -41 -52 15 -42 10 -134 -8 -153 -14 -16
-14 -22 -4 -36 7 -10 25 -18 40 -18 63 0 164 -138 152 -208 -9 -58 -64 -102
-129 -102 -63 0 -92 55 -108 203 -17 163 -51 237 -111 237 -30 0 -90 -35 -144
-83 l-49 -44 39 -48 39 -47 26 41 c54 85 76 62 84 -86 15 -310 173 -399 402
-226 102 77 119 172 54 294 -38 72 -87 112 -158 130 l-49 12 20 28 c26 34 35
118 18 159 -7 16 -15 30 -19 30 -3 0 -28 -14 -54 -31z"/>
<path d="M2645 3906 c-28 -12 -65 -40 -83 -60 -40 -45 -100 -164 -118 -231
-44 -162 28 -281 187 -309 35 -6 37 -5 43 25 12 60 8 79 -16 79 -73 0 -122 82
-99 163 33 111 116 247 151 247 4 0 25 -27 46 -60 l39 -61 73 7 72 6 0 -37 c0
-27 -27 -95 -95 -238 -53 -110 -94 -201 -93 -202 12 -10 90 -45 101 -45 17 0
180 342 198 412 14 59 5 120 -24 173 l-23 40 -79 0 -79 0 -36 57 c-33 55 -37
58 -75 58 -22 0 -63 -11 -90 -24z"/>
<path d="M8727 3872 l-39 -15 7 -46 c4 -25 9 -48 11 -50 3 -3 19 1 37 7 84 30
135 0 191 -110 78 -154 55 -299 -41 -259 -15 6 -79 72 -142 147 l-115 134 -43
-42 c-42 -41 -42 -42 -24 -62 10 -12 66 -75 125 -141 59 -66 121 -128 139
-137 77 -43 183 -7 233 78 85 145 -13 434 -168 499 -47 19 -121 18 -171 -3z"/>
<path d="M4040 3626 c-6 -22 -13 -46 -15 -53 -5 -15 -15 -12 265 -77 129 -31
238 -52 241 -48 8 9 29 95 25 100 -4 3 -278 69 -423 102 l-83 18 -10 -42z"/>
<path d="M8080 3634 c-88 -19 -184 -68 -216 -110 -55 -72 -38 -181 35 -227 33
-20 49 -22 192 -23 167 -2 193 -8 209 -50 20 -51 -40 -115 -120 -129 -55 -9
-87 8 -112 60 -12 25 -27 45 -32 45 -9 0 -95 -29 -104 -35 -6 -5 41 -103 64
-132 48 -64 112 -77 215 -47 171 51 249 141 220 253 -30 113 -84 141 -285 148
-157 5 -199 15 -194 46 7 45 108 83 251 94 43 3 80 9 82 13 2 4 2 30 -2 59
l-6 51 -66 -1 c-36 0 -95 -7 -131 -15z"/>
<path d="M3377 3626 c-20 -7 -44 -20 -53 -27 -24 -20 -54 -85 -54 -117 0 -47
46 -123 115 -192 70 -70 105 -117 105 -143 0 -9 -12 -24 -26 -34 -22 -14 -32
-15 -71 -5 -25 7 -76 32 -114 57 l-68 44 -41 -47 -40 -47 32 -28 c46 -39 165
-95 231 -108 101 -21 175 10 209 88 36 81 13 140 -102 271 -92 104 -104 125
-91 151 25 46 112 30 220 -39 l61 -39 30 44 c16 24 30 48 30 54 0 14 -103 73
-171 99 -76 28 -155 35 -202 18z"/>
<path d="M6493 3530 c-19 -8 -23 -17 -23 -53 0 -105 35 -137 153 -137 l73 0
29 -250 c27 -239 28 -252 12 -286 -23 -47 -82 -74 -162 -74 -126 0 -137 21
-167 299 l-23 213 -60 -7 c-33 -3 -61 -8 -63 -9 -1 -2 9 -101 22 -220 28 -236
38 -270 100 -323 48 -43 98 -57 191 -57 180 2 294 97 295 244 0 30 -11 152
-25 270 -13 118 -23 216 -20 218 2 2 22 6 44 9 43 6 42 3 64 102 6 23 5 23
-55 17 -43 -5 -63 -4 -68 4 -5 9 -26 10 -68 5 -47 -5 -61 -11 -65 -26 -4 -14
-14 -19 -39 -19 -43 0 -58 15 -58 57 0 31 -2 33 -32 32 -18 0 -43 -4 -55 -9z"/>
<path d="M10000 3450 c-54 -25 -134 -101 -161 -152 -11 -21 -26 -68 -33 -106
-18 -82 -44 -143 -84 -198 -17 -23 -161 -143 -328 -274 -165 -129 -349 -273
-410 -322 -152 -119 -200 -141 -334 -148 -125 -6 -172 -26 -253 -105 -49 -49
-96 -120 -85 -130 2 -3 58 13 123 35 66 22 122 40 126 40 17 0 71 -55 89 -91
21 -41 27 -132 10 -159 -5 -8 -64 -33 -130 -55 -67 -22 -122 -45 -123 -50 -1
-6 28 -25 65 -43 188 -92 366 4 422 228 9 36 34 92 54 125 42 66 57 79 798
657 125 97 177 117 320 121 81 3 109 8 154 28 90 42 220 176 220 228 0 5 -59
-10 -132 -35 -73 -24 -136 -44 -140 -44 -18 0 -82 68 -104 111 -26 52 -30 98
-13 146 9 29 21 35 150 79 76 27 139 52 139 57 0 4 -30 22 -67 40 -90 42 -203
49 -273 17z m33 -25 c-44 -19 -119 -90 -149 -142 -31 -52 -43 -169 -25 -226
17 -49 101 -141 154 -166 87 -42 189 -22 286 56 l46 37 -35 -38 c-19 -20 -63
-51 -97 -68 -52 -26 -71 -30 -115 -26 -29 2 -69 12 -89 22 -57 27 -128 102
-156 163 -50 108 -14 258 80 338 42 37 94 65 117 64 8 0 1 -6 -17 -14z m207
-49 c0 -2 -30 -14 -67 -27 -96 -31 -102 -32 -68 -13 45 26 135 53 135 40z
m-185 -318 c27 -40 27 -42 5 -27 -49 32 -72 111 -53 179 6 19 9 8 14 -42 4
-50 13 -77 34 -110z m335 -32 c0 -2 -8 -10 -17 -17 -16 -13 -17 -12 -4 4 13
16 21 21 21 13z m-609 -160 c7 -14 8 -30 2 -40 -4 -8 -150 -126 -323 -261
-173 -136 -342 -268 -375 -294 -94 -76 -100 -78 -124 -57 -39 35 -27 58 67
132 753 591 728 575 753 520z m-1072 -654 c48 -22 114 -90 142 -144 30 -59 31
-166 1 -224 -41 -79 -115 -146 -177 -159 -25 -5 -23 -3 12 13 97 47 168 155
167 257 0 82 -17 126 -70 180 -108 112 -237 111 -365 -1 l-44 -38 35 38 c90
96 200 125 299 78z m0 -222 c5 -19 6 -53 2 -75 l-7 -40 -6 55 c-6 57 -16 88
-45 130 -15 22 -14 22 15 -5 18 -16 36 -45 41 -65z m-104 -215 c-27 -13 -68
-26 -90 -30 -29 -4 -18 3 40 24 96 35 118 38 50 6z"/>
<path d="M5920 3116 c0 -324 -3 -351 -42 -393 -50 -53 -198 -51 -249 3 -24 25
-24 29 -27 260 l-3 234 -65 0 -64 0 0 -211 c0 -254 6 -286 69 -349 57 -57 114
-75 231 -74 67 0 95 5 132 23 59 29 114 88 127 138 5 21 11 183 13 361 l5 322
-64 0 -63 0 0 -314z"/>
<path d="M4088 3396 c-56 -15 -110 -54 -143 -104 -16 -25 -41 -105 -74 -242
-27 -113 -49 -206 -48 -206 1 -1 30 -8 65 -15 l63 -13 98 103 98 104 41 -5 40
-6 22 50 c12 27 20 51 18 53 -2 2 -26 7 -55 13 -72 13 -117 -5 -175 -68 -27
-28 -48 -49 -48 -46 0 2 9 44 21 93 35 148 73 193 163 193 60 0 105 -19 139
-59 38 -46 36 -99 -16 -316 l-43 -180 38 -12 c87 -27 77 -40 130 177 25 107
47 211 47 231 1 27 8 42 30 60 24 21 61 77 61 93 0 3 -22 17 -50 31 l-49 25
-16 -31 -16 -30 -36 31 c-42 37 -98 63 -171 79 -64 13 -74 13 -134 -3z"/>
<path d="M7321 3389 c-100 -20 -198 -103 -221 -190 -6 -22 -10 -63 -8 -92 l3
-52 48 3 49 4 -15 -29 c-27 -53 -28 -103 -3 -211 13 -56 26 -105 29 -108 10
-10 117 17 117 29 0 7 -9 49 -20 95 -33 135 -22 201 37 233 19 10 23 21 23 57
0 34 -3 43 -14 39 -27 -11 -136 -20 -136 -11 0 4 9 27 21 50 51 107 222 114
275 12 8 -16 35 -115 59 -220 24 -105 46 -192 48 -195 6 -5 100 18 110 27 11
10 -77 389 -102 438 -27 53 -84 99 -145 117 -54 16 -88 17 -155 4z"/>
<path d="M4810 3252 c-72 -19 -77 -27 -61 -90 l11 -39 68 19 c78 22 165 19
210 -7 41 -25 62 -74 62 -146 l0 -61 -35 31 c-68 59 -214 78 -292 37 -143 -73
-145 -265 -5 -329 44 -20 171 -31 185 -17 3 3 1 27 -5 53 -10 47 -10 47 -51
47 -47 0 -102 29 -111 58 -10 30 10 70 46 93 69 43 176 1 218 -86 18 -38 21
-59 19 -123 l-4 -77 55 -7 c30 -3 56 -5 58 -3 4 4 39 279 47 375 9 94 -5 149
-51 199 -71 79 -227 110 -364 73z"/>
<path d="M4362 1988 c3 -7 25 -73 49 -145 43 -131 44 -133 74 -133 32 0 31 -1
123 278 3 10 -3 13 -18 10 -17 -2 -27 -14 -36 -43 -7 -22 -25 -80 -40 -130
l-27 -90 -26 83 c-14 46 -28 81 -31 79 -3 -3 -6 7 -6 21 -3 47 -22 82 -45 82
-13 0 -19 -5 -17 -12z"/>
<path d="M4770 1855 c0 -138 1 -145 20 -145 19 0 20 7 20 145 0 138 -1 145
-20 145 -19 0 -20 -7 -20 -145z"/>
<path d="M5058 1891 c-4 -72 -10 -116 -20 -130 -8 -11 -18 -18 -22 -14 -4 4
-11 1 -16 -7 -7 -11 -10 -12 -10 -2 0 7 -4 10 -10 7 -5 -3 -10 -13 -10 -21 0
-10 12 -14 39 -14 32 0 44 6 65 31 25 29 26 36 26 145 0 104 -2 114 -19 114
-16 0 -19 -11 -23 -109z"/>
<path d="M5280 1856 c0 -140 1 -146 20 -146 20 0 20 5 18 142 -3 127 -5 143
-20 146 -17 3 -18 -9 -18 -142z"/>
<path d="M5487 1993 c-20 -19 -5 -33 36 -33 l42 0 -3 -125 c-3 -120 -2 -125
17 -125 20 0 21 6 21 125 l0 125 40 0 c33 0 40 3 40 20 0 19 -7 20 -93 20 -52
0 -97 -3 -100 -7z"/>
<path d="M5861 1974 c-54 -45 -36 -104 43 -135 67 -27 87 -70 41 -91 -19 -8
-35 -8 -65 1 -42 13 -60 9 -60 -13 0 -17 31 -26 93 -26 56 0 97 32 97 75 0 43
-18 64 -76 90 -32 14 -54 30 -54 39 0 9 -6 16 -12 16 -7 0 -2 7 11 16 16 12
37 15 72 12 42 -4 49 -2 49 12 0 38 -96 41 -139 4z"/>
<path d="M6180 1856 l0 -146 25 0 26 0 -3 143 c-3 139 -4 142 -25 145 -23 3
-23 3 -23 -142z"/>
<path d="M6410 1854 c0 -137 1 -144 20 -144 18 0 20 8 22 113 l3 112 39 -60
c22 -33 45 -65 50 -72 6 -6 22 -30 36 -52 19 -32 30 -41 52 -41 l28 0 0 129
c0 143 -3 161 -31 161 -18 0 -19 -9 -19 -117 -1 -86 -3 -113 -11 -100 -6 9
-15 14 -21 11 -7 -4 -8 -2 -4 4 4 7 -21 53 -55 106 -49 73 -67 94 -86 94 l-23
0 0 -144z"/>
<path d="M6857 1972 c-47 -49 -30 -95 48 -132 17 -8 40 -22 52 -31 19 -14 20
-19 9 -40 -9 -19 -20 -24 -51 -25 -22 0 -50 6 -62 13 -19 11 -23 10 -28 -8 -9
-29 -2 -33 68 -37 56 -4 65 -1 90 22 19 18 27 35 27 59 0 40 -24 65 -83 87
-36 14 -42 20 -42 45 0 30 1 30 55 31 41 1 56 5 58 16 3 18 -25 28 -79 28 -26
0 -42 -8 -62 -28z"/>
<path d="M3582 1258 c3 -127 5 -143 21 -146 14 -3 17 5 17 52 l0 56 46 0 c93
0 140 98 73 154 -26 22 -40 26 -95 26 l-65 0 3 -142z m119 102 c13 -7 19 -21
19 -45 0 -44 -24 -67 -64 -63 -30 3 -31 4 -34 61 l-3 57 31 0 c17 0 40 -5 51
-10z"/>
<path d="M4016 1391 c-18 -28 -56 -153 -50 -163 4 -6 3 -8 -3 -5 -6 4 -16 -12
-23 -36 -22 -68 -22 -77 -2 -77 13 0 22 12 31 40 l12 40 64 0 64 0 12 -40 c9
-28 18 -40 31 -40 10 0 18 3 18 6 0 3 -14 48 -31 100 -19 56 -36 91 -42 87 -6
-3 -7 -1 -3 5 4 6 2 30 -5 52 -10 34 -16 40 -40 40 -15 0 -30 -4 -33 -9z m74
-163 c0 -4 -20 -8 -45 -8 -37 0 -45 3 -45 19 0 16 17 71 36 121 5 13 54 -107
54 -132z"/>
<path d="M4340 1255 c0 -138 1 -145 20 -145 19 0 20 7 20 145 0 138 -1 145
-20 145 -19 0 -20 -7 -20 -145z"/>
<path d="M4452 1337 c-34 -34 -62 -66 -62 -71 0 -18 52 -76 62 -70 6 4 8 3 5
-3 -10 -16 56 -83 82 -83 22 0 22 0 -8 38 -17 20 -46 55 -65 76 l-35 39 19 25
c11 13 17 29 13 35 -3 5 -2 7 4 4 6 -4 27 11 47 33 29 32 33 40 19 40 -10 0
-47 -28 -81 -63z"/>
<path d="M4712 1383 c2 -13 13 -18 38 -18 l35 -1 5 -124 c4 -108 7 -125 22
-128 16 -3 18 10 20 124 l3 127 32 2 c37 2 48 9 38 24 -4 7 -45 11 -101 11
-86 0 -95 -2 -92 -17z"/>
<path d="M5069 1358 c-5 -247 -5 -243 19 -246 21 -3 22 0 22 62 l0 66 75 0 75
0 0 -65 c0 -58 2 -65 20 -65 19 0 20 7 20 145 0 137 -1 145 -20 145 -16 0 -19
-8 -22 -62 l-3 -63 -72 -3 -73 -3 0 66 c0 58 -2 65 -20 65 -17 0 -20 -7 -21
-42z"/>
<path d="M5538 1385 c-41 -23 -68 -75 -68 -131 1 -49 20 -90 35 -76 5 4 5 1 1
-6 -9 -14 8 -33 47 -50 60 -26 134 -7 180 47 49 59 30 169 -36 216 -27 19
-123 19 -159 0z m125 -37 c12 -6 27 -17 34 -24 18 -17 19 -105 2 -132 -33 -52
-143 -50 -167 3 -24 52 -11 123 27 152 20 16 76 16 104 1z"/>
<path d="M5930 1254 c0 -133 1 -145 18 -142 15 3 18 19 22 118 l5 115 28 -47
c15 -27 32 -48 37 -48 6 0 9 -4 8 -9 -6 -18 83 -131 102 -131 19 0 20 8 20
146 0 133 -1 145 -17 142 -16 -3 -18 -17 -18 -115 0 -61 -3 -109 -6 -107 -3 2
-39 53 -79 114 -59 87 -78 110 -97 110 l-23 0 0 -146z"/>
<path d="M6420 1393 c-25 -10 -69 -60 -76 -87 -10 -41 3 -126 23 -148 59 -66
181 -64 225 4 8 13 18 40 21 61 l6 37 -70 0 c-55 0 -69 -3 -69 -15 0 -11 12
-15 45 -15 25 0 45 -2 45 -5 0 -25 -34 -64 -60 -70 -80 -18 -125 24 -116 109
9 80 10 85 16 81 3 -2 24 0 47 5 25 6 53 6 74 0 25 -8 37 -7 47 4 12 12 10 16
-16 30 -30 15 -111 20 -142 9z"/>
<path d="M6842 1393 c-6 -2 -10 -9 -7 -14 4 -5 -1 -6 -9 -3 -10 4 -23 -8 -40
-35 -49 -78 -26 -180 48 -215 41 -19 114 -20 139 -2 33 25 19 34 -47 30 -62
-3 -66 -2 -90 27 -38 44 -37 118 2 154 24 23 34 26 84 23 47 -4 57 -1 61 13 3
11 -3 19 -17 23 -25 7 -106 6 -124 -1z"/>
<path d="M7154 1387 c-2 -7 -3 -71 -2 -143 3 -125 4 -129 26 -132 21 -3 22 0
22 62 l0 66 73 0 74 0 -5 -30 c-7 -52 6 -100 29 -100 19 0 19 6 17 143 -3 134
-4 142 -23 142 -18 0 -20 -7 -20 -60 0 -55 -2 -60 -22 -60 -12 0 -24 -3 -27
-5 -2 -3 -25 -4 -50 -2 l-46 4 0 64 c0 58 -2 64 -20 64 -11 0 -23 -6 -26 -13z"/>
<path d="M7639 1355 c-11 -26 -18 -53 -15 -61 3 -8 2 -13 -2 -10 -12 7 -55
-120 -46 -135 4 -7 3 -9 -3 -6 -6 4 -14 0 -17 -9 -9 -23 -8 -24 17 -24 18 0
25 9 35 43 l13 42 62 -3 c61 -3 64 -5 73 -34 9 -30 38 -58 49 -47 5 5 -35 132
-74 234 -15 40 -24 51 -45 53 -23 3 -29 -3 -47 -43z m70 -58 c11 -35 21 -66
21 -70 0 -4 -23 -7 -51 -7 -49 0 -51 1 -44 23 4 12 8 32 9 44 0 11 4 19 7 17
4 -2 9 10 13 26 9 46 21 36 45 -33z"/>
<path d="M7970 1256 l0 -146 25 0 26 0 -3 143 c-3 139 -4 142 -25 145 -23 3
-23 3 -23 -142z"/>
</g>
</svg>
